HIERARCHY
ROOT Hips
{
  OFFSET 104.721 102.814 24.4489
  CHANNELS 6 Xposition Yposition Zposition Zrotation Xrotation Yrotation
  JOINT RightUpLeg
  {
    OFFSET -8.9458 -8.66707 0.101652
    CHANNELS 3 Zrotation Xrotation Yrotation
    JOINT RightLeg
    {
      OFFSET 0 -44.4227 1.3727
      CHANNELS 3 Zrotation Xrotation Yrotation
      JOINT RightFoot
      {
        OFFSET 0.253549 -42.0924 -1.46059
        CHANNELS 3 Zrotation Xrotation Yrotation
        JOINT RightToes
        {
          OFFSET 0.04 -4.41509 8.4991
          CHANNELS 3 Zrotation Xrotation Yrotation
          End Site
          {
            OFFSET -0.08 -0.137448 9.77979
          }
        }
      }
    }
  }
  JOINT Spine
  {
    OFFSET 0 11.8905 0
    CHANNELS 3 Zrotation Xrotation Yrotation
    JOINT Spine1
    {
      OFFSET 0 25.6574 0.127663
      CHANNELS 3 Zrotation Xrotation Yrotation
      JOINT HEad
      {
        OFFSET 0 8.73416 0.011341
        CHANNELS 3 Zrotation Xrotation Yrotation
        End Site
        {
          OFFSET -0.29 12.7742 2.51395
        }
      }
      JOINT LeftShoulder1
      {
        OFFSET 8.99 -0.362252 -0.22
        CHANNELS 3 Zrotation Xrotation Yrotation
        JOINT LeftArm
        {
          OFFSET 10.2827 -0.00338 0.322123
          CHANNELS 3 Zrotation Xrotation Yrotation
          JOINT LeftForeArm
          {
            OFFSET 32.7669 0.099144 -1.42434
            CHANNELS 3 Zrotation Xrotation Yrotation
            JOINT LeftHand
            {
              OFFSET 27.5643 0.085362 1.02216
              CHANNELS 3 Zrotation Xrotation Yrotation
              End Site
              {
                OFFSET 16.7443 -0.6 1.50291
              }
            }
          }
        }
      }
      JOINT RightShoulder
      {
        OFFSET -8.99 -0.362252 -0.22
        CHANNELS 3 Zrotation Xrotation Yrotation
        JOINT RightArm
        {
          OFFSET -10.2827 -0.00338 0.322123
          CHANNELS 3 Zrotation Xrotation Yrotation
          JOINT RightForeArm
          {
            OFFSET -32.8971 0.099144 -1.42434
            CHANNELS 3 Zrotation Xrotation Yrotation
            JOINT RightHand
            {
              OFFSET -27.4921 0.085362 1.02216
              CHANNELS 3 Zrotation Xrotation Yrotation
              End Site
              {
                OFFSET -16.6312 -0.6 1.50291
              }
            }
          }
        }
      }
    }
  }
  JOINT LeftUpLeg
  {
    OFFSET 8.9458 -8.66707 0.101652
    CHANNELS 3 Zrotation Xrotation Yrotation
    JOINT LeftLeg
    {
      OFFSET 0 -44.4227 1.3727
      CHANNELS 3 Zrotation Xrotation Yrotation
      JOINT LeftFoot
      {
        OFFSET -0.253549 -42.0924 -1.46059
        CHANNELS 3 Zrotation Xrotation Yrotation
        JOINT LeftToes
        {
          OFFSET -0.04 -4.41509 8.4991
          CHANNELS 3 Zrotation Xrotation Yrotation
          End Site
          {
            OFFSET 0.08 -0.047448 9.77979
          }
        }
      }
    }
  }
}
MOTION
Frames:	12
Frame Time:	0.0166667
109.301 102.642 -116.127 -4.28129 -0.596743 -178.852 -0.52888 -21.148 8.46153 1.57875 27.6962 -22.7222 11.5245 -7.71488 0.317057 -1.18719 -21.3337 -9.44793 -4.21375 4.33652 0.459009 0.541718 3.92 -0.0396964 -0.864956 -0.115555 1.64236 1.98785e-016 0 3.97569e-016 -89.0414 -8.53849 -27.6326 -26.5448 17.443 -26.6201 0.368473 9.90896 -0.00117926 -1.03342 -0.0888875 -4.68227 88.5009 -29.8293 9.56745 18.8985 15.1488 17.9677 -0.369625 9.91382 0.00119886 -6.57602 -5.35241 10.7616 11.0864 48.5983 -6.5494 -0.522153 -7.42611 0.0253506 -1.57269 10.0434 -12.8848 
109.651 102.679 -117.725 -3.813 -0.811142 -178.669 0.248595 -20.4164 7.44323 1.08105 27.8936 -21.8785 11.466 -8.45456 0.384973 -1.14269 -22.6632 -9.26766 -3.69517 4.51713 0.511675 0.960097 3.63584 -0.0363461 -0.995801 -0.127229 1.53349 -4.96962e-017 -1.59028e-015 -1.98785e-016 -89.3764 -9.2055 -26.0326 -26.7152 17.3135 -26.088 0.368473 9.90896 -0.00117926 -1.21233 -0.0979656 -4.82987 89.1221 -29.1017 10.3995 18.9729 15.2123 18.2986 -0.369625 9.91382 0.00119886 -5.29968 -7.25369 11.5246 11.9548 51.1593 -4.71225 -1.6248 -3.94792 0.0565518 -1.37987 15.8515 -17.5151 
110.019 102.665 -119.273 -3.27601 -1.15879 -178.382 1.11203 -19.8575 6.53374 0.61229 28.105 -21.212 11.4711 -9.1988 0.455779 -1.08136 -23.8299 -9.07566 -3.03479 4.7106 0.515237 1.28034 3.25489 -0.0301833 -1.01341 -0.30112 1.415 -1.98785e-016 1.59028e-015 -3.97569e-016 -89.6421 -9.94367 -24.5292 -26.8721 17.1114 -25.1995 0.368473 9.90896 -0.00117926 -1.27256 -0.104514 -4.92914 89.6264 -28.3 11.1712 19.1155 15.3247 18.8781 -0.369625 9.91382 0.00119886 -3.88932 -9.66455 12.2538 13.022 54.0428 -3.55301 -2.40396 -0.245747 0.102039 -0.590478 20.605 -21.2231 
110.397 102.559 -120.804 -2.60407 -1.5938 -178.034 2.0442 -19.5246 6.31147 0.615807 28.5728 -21.0855 11.6525 -10.231 0.564714 -1.19043 -24.3597 -9.41651 -2.15538 4.89921 0.475861 1.54517 2.76681 -0.02111 -0.818621 -0.861931 1.27256 -1.49089e-016 -1.59028e-015 -7.95139e-016 -89.8767 -10.8576 -23.1659 -26.9507 16.7843 -23.824 0.368473 9.90896 -0.00117926 -1.17353 -0.101445 -4.87201 89.8354 -27.4028 11.808 19.3806 15.4846 19.6788 -0.369625 9.91382 0.00119886 -2.40771 -12.392 13.2652 15.2345 57.2249 -5.5176 -1.98041 3.4862 0.125673 -0.175586 22.2272 -21.9222 
110.744 102.433 -122.27 -1.9647 -2.06383 -177.595 2.84999 -19.2808 6.24146 0.80817 29.0427 -21.192 11.8318 -11.2637 0.673914 -1.35163 -24.7628 -9.90676 -1.3341 5.03753 0.433967 1.77691 2.38136 -0.0135264 -0.584552 -1.59036 1.01172 1.49089e-016 -1.59028e-015 -0 -90.1801 -11.7832 -22.0993 -26.9378 16.3865 -22.1215 0.368473 9.90896 -0.00117926 -1.05139 -0.0945678 -4.76021 89.9888 -26.4715 12.5497 19.6409 15.6758 20.6424 -0.369625 9.91382 0.00119886 -1.05002 -15.3435 13.8038 17.8998 60.5636 -8.14827 -1.20021 6.55837 0.130506 -0.260946 22.2505 -20.1082 
110.996 102.346 -123.6 -1.51419 -2.52801 -176.99 3.30075 -19.0562 5.95472 1.09327 29.3371 -21.3661 11.8078 -12.0784 0.749978 -1.5317 -25.4646 -10.4426 -0.853103 5.0544 0.441042 2.03202 2.33529 -0.0121519 -0.469471 -2.32169 0.440572 -1.10348e-032 -1.59028e-015 -3.97569e-016 -90.782 -12.5299 -21.6282 -26.7643 15.956 -20.1187 0.368473 9.90896 -0.00117926 -1.04546 -0.0872887 -4.66251 90.2557 -25.5759 13.6063 19.784 15.9026 21.7884 -0.369625 9.91382 0.00119886 -0.328262 -18.5134 12.8807 19.2191 64.2101 -8.33492 -0.63077 8.11103 0.0935606 -0.510466 20.8837 -14.9374 
111.211 102.303 -124.895 -1.22426 -2.90573 -176.391 3.5428 -18.6826 5.5548 1.33699 29.4607 -21.5286 11.7485 -12.751 0.811741 -1.64329 -26.2533 -10.7355 -0.622474 5.00922 0.470229 2.25001 2.53732 -0.0158903 -0.437745 -3.11644 -0.164528 -4.96962e-016 -1.59028e-015 7.95139e-016 -91.424 -13.2554 -21.3747 -26.5593 15.5121 -18.076 0.368473 9.90896 -0.00117926 -1.10575 -0.0797313 -4.56983 90.6198 -24.6542 14.9667 19.8253 16.1051 22.8555 -0.369625 9.91382 0.00119886 -0.0651824 -21.599 11.295 19.2925 67.6938 -7.00338 -0.225472 8.46058 0.0536053 -0.486679 18.6512 -9.56437 
111.431 102.352 -126.258 -1.18859 -3.07785 -175.997 3.60957 -17.8792 4.99108 1.31525 29.2827 -21.5193 11.8035 -13.2623 0.870083 -1.47765 -27.0569 -10.2054 -0.769739 4.9205 0.528855 2.40447 2.99201 -0.0268259 -0.541292 -3.99226 -0.539945 8.94531e-016 0 -1.59028e-015 -91.8624 -14.0655 -21.0023 -26.5047 15.1137 -16.2867 0.368473 9.90896 -0.00117926 -1.25017 -0.0736544 -4.5053 91.0717 -23.6333 16.7088 19.7732 16.2361 23.5711 -0.369625 9.91382 0.00119886 -0.0484226 -24.1743 9.43568 17.4201 70.5321 -3.48655 -0.191429 7.34894 0.0514498 -0.471614 16.8921 -7.16029 
111.64 102.414 -127.608 -1.23021 -3.12206 -175.656 3.64695 -16.9094 4.37107 1.19229 29.037 -21.4135 11.8299 -13.6789 0.915956 -1.26243 -27.8972 -9.57503 -0.924025 4.83977 0.565809 2.45037 3.64857 -0.0401835 -0.62674 -4.91361 -0.838063 -7.95139e-016 -3.18055e-015 -0 -92.1984 -14.9467 -20.678 -26.4502 14.7527 -14.6594 0.368473 9.90896 -0.00117926 -1.41439 -0.0675643 -4.44107 91.7268 -22.6073 18.7647 19.5758 16.2991 23.979 -0.369625 9.91382 0.00119886 -0.267797 -26.4534 7.62433 14.608 72.6456 0.399151 -0.346391 5.63986 0.0603234 -0.510128 15.1229 -5.93443 
111.839 102.401 -128.872 -1.17619 -3.07582 -175.233 3.81038 -16.0176 3.74578 1.07608 29.0173 -21.2167 11.6784 -14.0592 0.937594 -1.23426 -28.8739 -9.48329 -0.655363 4.85084 0.507164 2.26733 4.5074 -0.051594 -0.50739 -5.93775 -1.12542 1.98785e-016 -1.59028e-015 -3.18055e-015 -92.4685 -15.9322 -20.5502 -26.2529 14.4379 -13.1686 0.368473 9.90896 -0.00117926 -1.4652 -0.0621295 -4.37772 92.7844 -21.657 21.1945 19.1462 16.2645 23.9751 -0.369625 9.91382 0.00119886 -0.553636 -28.5747 6.4536 13.8646 73.9739 0.552389 -0.568313 4.2083 0.066627 -0.540512 12.9258 -5.15311 
112.019 102.39 -130.132 -1.09558 -2.93959 -174.867 4.05648 -14.9892 3.21478 0.912242 28.9108 -20.9756 11.5187 -14.4088 0.954328 -1.30805 -29.6833 -9.67123 -0.269744 4.87537 0.428778 2.0545 5.41946 -0.0619231 -0.347408 -6.80371 -1.39642 -5.96354e-016 1.59028e-015 7.95139e-016 -92.6383 -16.9847 -20.3443 -26.0709 14.1712 -11.9107 0.368473 9.90896 -0.00117926 -1.62723 -0.0526165 -4.25307 94.0463 -20.7361 23.7111 18.5874 16.1733 23.7332 -0.369625 9.91382 0.00119886 -0.831101 -30.4035 5.68698 14.0825 74.5504 -0.84526 -0.883001 2.76254 0.0714767 -0.604603 11.0076 -5.01482 
112.173 102.443 -131.46 -0.986749 -2.67727 -174.695 4.42822 -13.5906 2.9499 0.659073 28.4177 -20.7597 11.4722 -14.7185 0.977546 -1.48969 -30.0754 -10.1601 0.0624124 4.84795 0.394388 2.03109 6.27715 -0.0719495 -0.280503 -7.19857 -1.67788 -5.96354e-016 0 -7.95139e-016 -92.6554 -18.0693 -19.7852 -26.0503 13.9544 -10.9825 0.368473 9.90896 -0.00117926 -2.20023 -0.0315938 -3.97384 95.4855 -19.8347 26.0764 17.9367 16.0405 23.3362 -0.369625 9.91382 0.00119886 -0.937631 -31.7897 5.35233 13.9808 74.3236 -1.82284 -1.32362 1.27021 0.0718081 -0.714311 10.2788 -5.76719 
